# xmcd CD database file
#
# Track frame offsets:
#	150
#	42190
#	74142
#	113294
#	145846
#	169248
#	204950
#	245752
#
# Disc length: 3534 seconds
#
# Revision: 0
# Processed by: cddbd v1.5.2PL0 Copyright (c) Steve Scherf et al.
# Submitted via: CDex 1.70beta2
#
DISCID=700dcc08
DTITLE=(Another) Nuttree Quartet - Something Sentimental
DYEAR=2009
DGENRE=Jazz
TTITLE0=Poinciana
TTITLE1=I Hear A Rhapsody
TTITLE2=Lover Man
TTITLE3=Besame Mucho
TTITLE4=All Of Me
TTITLE5=All The Things You Are
TTITLE6=It's Alright With Me
TTITLE7=The Party's Over
EXTD=YEAR: 2009
EXTT0=
EXTT1=
EXTT2=
EXTT3=
EXTT4=
EXTT5=
EXTT6=
EXTT7=
PLAYORDER=
